<svg xmlns="http://www.w3.org/2000/svg" xmlns:lucid="lucid" width="341" height="341"><g lucid:page-tab-id="3MuydmhaGg5L"><path d="M140 80c0 33.14-26.86 60-60 60s-60-26.86-60-60 26.86-60 60-60 60 26.86 60 60z" stroke="#0c7cba" stroke-width="8" fill="#fff"/><path d="M27.1 27.1h105.8v105.8H27.1z" stroke="#000" stroke-opacity="0" stroke-width="8" fill="#fff"/><path d="M124.46 80c0 24.55-19.9 44.46-44.46 44.46-24.55 0-44.46-19.9-44.46-44.46 0-24.55 19.9-44.46 44.46-44.46 24.55 0 44.46 19.9 44.46 44.46z" stroke="#0c7cba" stroke-width="8" fill="#fff"/><path d="M280 80c0 27.6-22.4 50-50 50s-50-22.4-50-50 22.4-50 50-50 50 22.4 50 50z" stroke="#ef8d22" stroke-width="8" fill="#fff"/><path d="M185.9 35.9h88.2v88.2h-88.2z" stroke="#000" stroke-opacity="0" stroke-width="8" fill="#fff"/><path d="M267.05 80c0 20.46-16.6 37.05-37.05 37.05-20.46 0-37.05-16.6-37.05-37.05 0-20.46 16.6-37.05 37.05-37.05 20.46 0 37.05 16.6 37.05 37.05z" stroke="#ef8d22" stroke-width="8" fill="#fff"/><path d="M148 80h24" stroke="#0c7cba" stroke-width="8" fill="none"/><path d="M148.1 84h-4.26l.16-4-.14-4h4.25M176 79.97l.14 3.93v.1h-4.25v-8h4.3" fill="#0c7cba"/><path d="M130 230c0 27.6-22.4 50-50 50s-50-22.4-50-50 22.4-50 50-50 50 22.4 50 50z" stroke="#7ab648" stroke-width="8" fill="#fff"/><path d="M35.9 185.9h88.2v88.2H35.9z" stroke="#000" stroke-opacity="0" stroke-width="8" fill="#fff"/><path d="M117.05 230c0 20.46-16.6 37.05-37.05 37.05-20.46 0-37.05-16.6-37.05-37.05 0-20.46 16.6-37.05 37.05-37.05 20.46 0 37.05 16.6 37.05 37.05z" stroke="#7ab648" stroke-width="8" fill="#fff"/><path d="M80 148v24" stroke="#0c7cba" stroke-width="8" fill="none"/><path d="M80 144l4-.14v4.25h-8v-4.26M84 176.2l-3.97-.2-3.93.14H76v-4.25h8" fill="#0c7cba"/><path d="M270 230c0 22.1-17.9 40-40 40s-40-17.9-40-40 17.9-40 40-40 40 17.9 40 40z" stroke="#5e5e5e" stroke-width="8" fill="#fff"/><path d="M194.72 194.72h70.56v70.56h-70.56z" stroke="#000" stroke-opacity="0" stroke-width="8" fill="#fff"/><path d="M259.64 230c0 16.37-13.27 29.64-29.64 29.64s-29.64-13.27-29.64-29.64 13.27-29.64 29.64-29.64 29.64 13.27 29.64 29.64z" stroke="#5e5e5e" stroke-width="8" fill="#fff"/><path d="M138 230h44" stroke="#7ab648" stroke-width="8" fill="none"/><path d="M138.1 234h-4.3l.2-3.97-.14-3.93v-.1h4.25M186 229.95l.1 3.26.12.8h-4.33v-8h4.34" fill="#7ab648"/><path d="M230 138v44" stroke="#ef8d22" stroke-width="8" fill="none"/><path d="M229.97 134l3.93-.14h.1v4.25h-8v-4.3M234 186.24l-3.95-.24-3.26.1-.8.12v-4.33h8" fill="#ef8d22"/><path d="M288 80h8" stroke="#ef8d22" stroke-width="8" fill="none"/><path d="M288.1 84h-4.3l.2-3.97-.14-3.93V76h4.25" fill="#ef8d22"/><path d="M295.9 80h4.1" stroke="#ef8d22" stroke-width="8" fill="none"/><path d="M296 230h-18M295.9 230h4.1" stroke="#5e5e5e" stroke-width="8" fill="none"/><path d="M278.1 234h-4.34l.24-3.95-.1-3.26-.12-.8h4.33" fill="#5e5e5e"/><path d="M80 288v8" stroke="#7ab648" stroke-width="8" fill="none"/><path d="M79.97 284l3.93-.14h.1v4.25h-8v-4.3" fill="#7ab648"/><path d="M80 295.9v4.1" stroke="#7ab648" stroke-width="8" fill="none"/><path d="M230 278v18" stroke="#5e5e5e" stroke-width="8" fill="none"/><path d="M229.95 274l3.26-.1.8-.12v4.33h-8v-4.34" fill="#5e5e5e"/><path d="M230 295.9v4.1" stroke="#5e5e5e" stroke-width="8" fill="none"/></g></svg>