<svg xmlns="http://www.w3.org/2000/svg" xmlns:xlink="http://www.w3.org/1999/xlink" xmlns:lucid="lucid" width="1200" height="420"><g transform="translate(-60 -60)" lucid:page-tab-id="0_0"><path d="M0 0h1870.87v1322.83H0z" fill="#fff"/><path d="M220 160c0 33.14-26.86 60-60 60s-60-26.86-60-60 26.86-60 60-60 60 26.86 60 60z" stroke="#0c7cba" stroke-width="8" fill="#fff"/><path d="M107.1 107.1h105.8v105.8H107.1z" stroke="#000" stroke-opacity="0" stroke-width="8" fill="#fff"/><path d="M204.46 160c0 24.55-19.9 44.46-44.46 44.46-24.55 0-44.46-19.9-44.46-44.46 0-24.55 19.9-44.46 44.46-44.46 24.55 0 44.46 19.9 44.46 44.46z" stroke="#0c7cba" stroke-width="8" fill="#fff"/><path d="M360 160c0 27.6-22.4 50-50 50s-50-22.4-50-50 22.4-50 50-50 50 22.4 50 50z" stroke="#ef8d22" stroke-width="8" fill="#fff"/><path d="M265.9 115.9h88.2v88.2h-88.2z" stroke="#000" stroke-opacity="0" stroke-width="8" fill="#fff"/><path d="M347.05 160c0 20.46-16.6 37.05-37.05 37.05-20.46 0-37.05-16.6-37.05-37.05 0-20.46 16.6-37.05 37.05-37.05 20.46 0 37.05 16.6 37.05 37.05z" stroke="#ef8d22" stroke-width="8" fill="#fff"/><path d="M228 160h24" stroke="#0c7cba" stroke-width="8" fill="none"/><path d="M228.1 164h-4.26l.16-4-.14-4h4.25M256 159.97l.14 3.93v.1h-4.25v-8h4.3" fill="#0c7cba"/><path d="M210 310c0 27.6-22.4 50-50 50s-50-22.4-50-50 22.4-50 50-50 50 22.4 50 50z" stroke="#7ab648" stroke-width="8" fill="#fff"/><path d="M115.9 265.9h88.2v88.2h-88.2z" stroke="#000" stroke-opacity="0" stroke-width="8" fill="#fff"/><path d="M197.05 310c0 20.46-16.6 37.05-37.05 37.05-20.46 0-37.05-16.6-37.05-37.05 0-20.46 16.6-37.05 37.05-37.05 20.46 0 37.05 16.6 37.05 37.05z" stroke="#7ab648" stroke-width="8" fill="#fff"/><path d="M160 228v24" stroke="#0c7cba" stroke-width="8" fill="none"/><path d="M160 224l4-.14v4.25h-8v-4.26M164 256.2l-3.97-.2-3.93.14h-.1v-4.25h8" fill="#0c7cba"/><path d="M350 310c0 22.1-17.9 40-40 40s-40-17.9-40-40 17.9-40 40-40 40 17.9 40 40z" stroke="#5e5e5e" stroke-width="8" fill="#fff"/><path d="M274.72 274.72h70.56v70.56h-70.56z" stroke="#000" stroke-opacity="0" stroke-width="8" fill="#fff"/><path d="M339.64 310c0 16.37-13.27 29.64-29.64 29.64s-29.64-13.27-29.64-29.64 13.27-29.64 29.64-29.64 29.64 13.27 29.64 29.64z" stroke="#5e5e5e" stroke-width="8" fill="#fff"/><path d="M218 310h44" stroke="#7ab648" stroke-width="8" fill="none"/><path d="M218.1 314h-4.3l.2-3.97-.14-3.93v-.1h4.25M266 309.95l.1 3.26.12.8h-4.33v-8h4.34" fill="#7ab648"/><path d="M310 218v44" stroke="#ef8d22" stroke-width="8" fill="none"/><path d="M309.97 214l3.93-.14h.1v4.25h-8v-4.3M314 266.24l-3.95-.24-3.26.1-.8.12v-4.33h8" fill="#ef8d22"/><path d="M368 160h8" stroke="#ef8d22" stroke-width="8" fill="none"/><path d="M368.1 164h-4.3l.2-3.97-.14-3.93v-.1h4.25" fill="#ef8d22"/><path d="M375.9 160h4.1" stroke="#ef8d22" stroke-width="8" fill="none"/><path d="M376 310h-18M375.9 310h4.1" stroke="#5e5e5e" stroke-width="8" fill="none"/><path d="M358.1 314h-4.34l.24-3.95-.1-3.26-.12-.8h4.33" fill="#5e5e5e"/><path d="M160 368v8" stroke="#7ab648" stroke-width="8" fill="none"/><path d="M159.97 364l3.93-.14h.1v4.25h-8v-4.3" fill="#7ab648"/><path d="M160 375.9v4.1" stroke="#7ab648" stroke-width="8" fill="none"/><path d="M310 358v18" stroke="#5e5e5e" stroke-width="8" fill="none"/><path d="M309.95 354l3.26-.1.8-.12v4.33h-8v-4.34" fill="#5e5e5e"/><path d="M310 375.9v4.1" stroke="#5e5e5e" stroke-width="8" fill="none"/><path d="M420 109.88c0-3.3 2.7-6 6-6h788c3.3 0 6 2.7 6 6v280.24c0 3.3-2.7 6-6 6H426c-3.3 0-6-2.7-6-6z" stroke="#000" stroke-opacity="0" stroke-width="3" fill="#fff" fill-opacity="0"/><use xlink:href="#a" transform="matrix(1,0,0,1,425,108.88454861111146) translate(0 114.30881076388862)"/><use xlink:href="#b" transform="matrix(1,0,0,1,425,108.88454861111146) translate(0 255.42426215277715)"/><path d="M100 386c0-3.3 2.7-6 6-6h1088c3.3 0 6 2.7 6 6v48c0 3.3-2.7 6-6 6H106c-3.3 0-6-2.7-6-6z" stroke="#000" stroke-opacity="0" stroke-width="3" fill="#fff" fill-opacity="0"/><use xlink:href="#c" transform="matrix(1,0,0,1,105,385) translate(0 38.72938368055555)"/><use xlink:href="#d" transform="matrix(1,0,0,1,105,385) translate(61.663411458333314 38.72938368055555)"/><use xlink:href="#e" transform="matrix(1,0,0,1,105,385) translate(169.09505208333331 38.72938368055555)"/><use xlink:href="#f" transform="matrix(1,0,0,1,105,385) translate(386.2879774305555 38.72938368055555)"/><use xlink:href="#g" transform="matrix(1,0,0,1,105,385) translate(452.0746527777777 38.72938368055555)"/><use xlink:href="#h" transform="matrix(1,0,0,1,105,385) translate(616.2217881944443 38.72938368055555)"/><use xlink:href="#i" transform="matrix(1,0,0,1,105,385) translate(790.9038628472221 38.72938368055555)"/><use xlink:href="#j" transform="matrix(1,0,0,1,105,385) translate(852.0518663194442 38.72938368055555)"/><use xlink:href="#k" transform="matrix(1,0,0,1,105,385) translate(1002.6746961805553 38.72938368055555)"/><defs><path fill="#333" d="M558-1225V0H428v-1225H21v-130h954v130H558" id="l"/><path fill="#333" d="M497-108c108 0 303-51 303-143v-220c-2 23-338 19-365 38-104 20-200 82-200 182 0 95 87 143 262 143zm28-871c161 0 405 100 405 248v579c0 27 16 41 48 44-1 21-3 64-5 129-72-4-122-33-151-87-82 59-188 88-318 88C233 22 97-70 97-253c0-145 124-253 248-288 70-20 368-9 427-58 17-9 27-25 29-46-1 7-1-13-1-60 0-84-168-147-260-147-166 0-269 58-309 174l-126-27c31-178 203-274 420-274" id="m"/><path fill="#333" d="M922-478c0-187-188-371-375-371S209-669 209-478c0 190 155 370 343 370 187 0 370-183 370-370zm130 0c0 255-245 500-500 500-147 0-263-65-348-196V0H72v-1355h132v572c82-131 196-196 343-196 256 0 505 245 505 501" id="n"/><path fill="#333" d="M483-108c191 0 291-169 291-370v-479h130V0H774v-137C701-31 604 22 483 22 219 22 67-183 67-456v-501h130v501c-4 182 112 348 286 348" id="o"/><path fill="#333" d="M86-1355h132V0H86v-1355" id="p"/><path fill="#333" d="M550-827c-191 0-346 159-346 349V0H72v-957h132v174c85-116 198-174 339-174h204v174c-69-29-134-44-197-44" id="q"/><g id="a"><use transform="matrix(0.06618923611111095,0,0,0.06618923611111095,0,0)" xlink:href="#l"/><use transform="matrix(0.06618923611111095,0,0,0.06618923611111095,70.16059027777762,0)" xlink:href="#m"/><use transform="matrix(0.06618923611111095,0,0,0.06618923611111095,140.7183159722219,0)" xlink:href="#n"/><use transform="matrix(0.06618923611111095,0,0,0.06618923611111095,216.04166666666615,0)" xlink:href="#o"/><use transform="matrix(0.06618923611111095,0,0,0.06618923611111095,284.87847222222155,0)" xlink:href="#p"/><use transform="matrix(0.06618923611111095,0,0,0.06618923611111095,308.37565104166595,0)" xlink:href="#m"/><use transform="matrix(0.06618923611111095,0,0,0.06618923611111095,378.9333767361103,0)" xlink:href="#q"/></g><path fill="#333" d="M880-366c0-134-176-225-319-225H204v461h357c139 5 319-103 319-236zm-69-609c0-143-156-250-304-250H204v500h299c154 4 308-103 308-250zm195 609C1006-152 783 0 561 0H74v-1355h426c233-5 441 155 441 380 0 122-53 220-159 294 149 71 224 176 224 315" id="r"/><path fill="#333" d="M52-478c0-256 228-501 485-501 264 0 489 248 480 516H180c0 180 174 355 357 355 148 0 301-110 347-219l130 23C955-140 749 17 537 22 280 28 52-222 52-478zm815-115c-38-129-172-257-330-256-158 0-295 130-340 256h670" id="s"/><path fill="#333" d="M545-849c-196 0-341 171-341 371V0H74v-957h130v174c77-131 190-196 341-196 285 0 449 200 449 493V0H862v-478c2-219-106-371-317-371" id="t"/><path fill="#333" d="M51-478c0-256 221-509 478-501 201 6 353 126 426 274H803c-71-96-163-144-274-144-189 0-348 180-348 372 0 191 160 369 348 369 100 0 189-44 266-132h155C852-65 712 22 529 22 275 22 51-223 51-478" id="u"/><path fill="#333" d="M543-849c-184 0-339 185-339 371V0H74v-1355h130v572c84-131 197-196 339-196 250 0 421 235 421 493V0H834v-478c4-195-107-371-291-371" id="v"/><path fill="#333" d="M455-849c-173 0-251 180-251 371V0H74v-957h130v106c60-85 144-128 251-128 146 0 245 69 296 208 37-139 135-208 295-208 233 0 349 167 349 501V0h-130v-478c0-247-73-371-219-371-169 0-241 180-241 371V0H675l-1-478c0-247-73-371-219-371" id="w"/><path fill="#333" d="M204-656l437-331 87 99-330 254L782 0H626L289-554l-85 65V0H72v-1355h132v699" id="x"/><g id="b"><use transform="matrix(0.06618923611111095,0,0,0.06618923611111095,0,0)" xlink:href="#r"/><use transform="matrix(0.06618923611111095,0,0,0.06618923611111095,74.13194444444427,0)" xlink:href="#s"/><use transform="matrix(0.06618923611111095,0,0,0.06618923611111095,148.5948350694441,0)" xlink:href="#t"/><use transform="matrix(0.06618923611111095,0,0,0.06618923611111095,222.52821180555503,0)" xlink:href="#u"/><use transform="matrix(0.06618923611111095,0,0,0.06618923611111095,294.2773437499993,0)" xlink:href="#v"/><use transform="matrix(0.06618923611111095,0,0,0.06618923611111095,363.8422309027769,0)" xlink:href="#w"/><use transform="matrix(0.06618923611111095,0,0,0.06618923611111095,466.23697916666555,0)" xlink:href="#m"/><use transform="matrix(0.06618923611111095,0,0,0.06618923611111095,536.7947048611098,0)" xlink:href="#q"/><use transform="matrix(0.06618923611111095,0,0,0.06618923611111095,593.5188802083319,0)" xlink:href="#x"/></g><path fill="#333" d="M695-649l-152-510-156 510h308zM888 0L732-517H348L192 0H57l406-1355h160L1029 0H888" id="y"/><g id="c"><use transform="matrix(0.02061631944444444,0,0,0.02061631944444444,0,0)" xlink:href="#y"/><use transform="matrix(0.02061631944444444,0,0,0.02061631944444444,23.708767361111107,0)" xlink:href="#t"/></g><path fill="#333" d="M540-1249c-205 0-353 174-353 382v377c-5 208 148 382 353 382s353-174 353-382v-377c5-208-148-382-353-382zm0-130c272 0 483 251 483 528v345c8 277-211 528-483 528S57-229 57-506v-345c-8-277 211-528 483-528" id="z"/><path fill="#333" d="M209-478c0 191 154 370 342 370 187 0 348-181 348-370S737-849 551-849c-188 0-342 180-342 371zm820 0c0 258-224 500-478 500-147 0-262-65-347-196v573H74V-957h130v174c85-131 200-196 347-196 256 0 478 244 478 501" id="A"/><g id="d"><use transform="matrix(0.02061631944444444,0,0,0.02061631944444444,0,0)" xlink:href="#z"/><use transform="matrix(0.02061631944444444,0,0,0.02061631944444444,23.337673611111107,0)" xlink:href="#A"/><use transform="matrix(0.02061631944444444,0,0,0.02061631944444444,46.28363715277777,0)" xlink:href="#s"/><use transform="matrix(0.02061631944444444,0,0,0.02061631944444444,69.47699652777777,0)" xlink:href="#t"/></g><g id="e"><use transform="matrix(0.02061631944444444,0,0,0.02061631944444444,0,0)" xlink:href="#r"/><use transform="matrix(0.02061631944444444,0,0,0.02061631944444444,23.090277777777775,0)" xlink:href="#s"/><use transform="matrix(0.02061631944444444,0,0,0.02061631944444444,46.28363715277777,0)" xlink:href="#t"/><use transform="matrix(0.02061631944444444,0,0,0.02061631944444444,69.31206597222221,0)" xlink:href="#u"/><use transform="matrix(0.02061631944444444,0,0,0.02061631944444444,91.66015624999999,0)" xlink:href="#v"/><use transform="matrix(0.02061631944444444,0,0,0.02061631944444444,113.32790798611109,0)" xlink:href="#w"/><use transform="matrix(0.02061631944444444,0,0,0.02061631944444444,145.22135416666663,0)" xlink:href="#m"/><use transform="matrix(0.02061631944444444,0,0,0.02061631944444444,167.1983506944444,0)" xlink:href="#q"/><use transform="matrix(0.02061631944444444,0,0,0.02061631944444444,184.8665364583333,0)" xlink:href="#x"/></g><path fill="#333" d="M431-1222c-103-2-191 65-188 167v98h188v130H243V0H111v-827H33v-130h78c-7-146 8-241 94-317 61-53 135-81 226-81v133" id="B"/><path fill="#333" d="M881-477c0-189-160-372-351-372-189 0-348 181-348 372s160 369 348 369 351-180 351-369zm-829-1c0-256 220-501 478-501 257 0 481 246 481 502S785 22 530 22C276 22 52-223 52-478" id="C"/><g id="f"><use transform="matrix(0.02061631944444444,0,0,0.02061631944444444,0,0)" xlink:href="#B"/><use transform="matrix(0.02061631944444444,0,0,0.02061631944444444,9.998914930555554,0)" xlink:href="#C"/><use transform="matrix(0.02061631944444444,0,0,0.02061631944444444,33.19227430555555,0)" xlink:href="#q"/></g><path fill="#333" d="M204-1131V0H72v-1355h167l417 834 417-834h172V0h-133v-1131L732-373H584" id="D"/><path fill="#333" d="M240-1205c-40 0-79-36-79-76s39-76 79-76c41 0 78 35 78 76s-37 76-78 76zM47-957h257V0H174v-827H47v-130" id="E"/><g id="g"><use transform="matrix(0.02061631944444444,0,0,0.02061631944444444,0,0)" xlink:href="#D"/><use transform="matrix(0.02061631944444444,0,0,0.02061631944444444,28.759765624999993,0)" xlink:href="#m"/><use transform="matrix(0.02061631944444444,0,0,0.02061631944444444,50.73676215277777,0)" xlink:href="#u"/><use transform="matrix(0.02061631944444444,0,0,0.02061631944444444,73.08485243055554,0)" xlink:href="#v"/><use transform="matrix(0.02061631944444444,0,0,0.02061631944444444,94.75260416666664,0)" xlink:href="#E"/><use transform="matrix(0.02061631944444444,0,0,0.02061631944444444,102.99913194444443,0)" xlink:href="#t"/><use transform="matrix(0.02061631944444444,0,0,0.02061631944444444,126.02756076388887,0)" xlink:href="#s"/></g><path fill="#333" d="M204-1355v1225h596V0H74v-1355h130" id="F"/><path fill="#333" d="M177-478c0 192 146 370 333 370s324-179 324-370c0-193-136-371-324-371-187 0-333 180-333 371zm332 742c191 3 334-157 330-347v-91C756-43 647 22 510 22 246 22 47-209 47-478c0-259 208-501 463-501 140 0 250 67 329 201v-179h130v888c6 260-201 463-461 463C272 394 95 221 61 14L188-7c30 151 149 268 321 271" id="G"/><g id="h"><use transform="matrix(0.02061631944444444,0,0,0.02061631944444444,0,0)" xlink:href="#F"/><use transform="matrix(0.02061631944444444,0,0,0.02061631944444444,18.781467013888886,0)" xlink:href="#s"/><use transform="matrix(0.02061631944444444,0,0,0.02061631944444444,41.974826388888886,0)" xlink:href="#m"/><use transform="matrix(0.02061631944444444,0,0,0.02061631944444444,63.95182291666666,0)" xlink:href="#q"/><use transform="matrix(0.02061631944444444,0,0,0.02061631944444444,82.77452256944443,0)" xlink:href="#t"/><use transform="matrix(0.02061631944444444,0,0,0.02061631944444444,105.80295138888887,0)" xlink:href="#E"/><use transform="matrix(0.02061631944444444,0,0,0.02061631944444444,114.04947916666664,0)" xlink:href="#t"/><use transform="matrix(0.02061631944444444,0,0,0.02061631944444444,137.0779079861111,0)" xlink:href="#G"/></g><g id="i"><use transform="matrix(0.02061631944444444,0,0,0.02061631944444444,0,0)" xlink:href="#C"/><use transform="matrix(0.02061631944444444,0,0,0.02061631944444444,23.193359374999996,0)" xlink:href="#t"/></g><g id="j"><use transform="matrix(0.02061631944444444,0,0,0.02061631944444444,0,0)" xlink:href="#l"/><use transform="matrix(0.02061631944444444,0,0,0.02061631944444444,21.853298611111107,0)" xlink:href="#m"/><use transform="matrix(0.02061631944444444,0,0,0.02061631944444444,43.83029513888889,0)" xlink:href="#n"/><use transform="matrix(0.02061631944444444,0,0,0.02061631944444444,67.29166666666666,0)" xlink:href="#o"/><use transform="matrix(0.02061631944444444,0,0,0.02061631944444444,88.73263888888887,0)" xlink:href="#p"/><use transform="matrix(0.02061631944444444,0,0,0.02061631944444444,96.05143229166664,0)" xlink:href="#m"/><use transform="matrix(0.02061631944444444,0,0,0.02061631944444444,118.02842881944443,0)" xlink:href="#q"/></g><path fill="#333" d="M848-827c4-216-138-398-348-398H204v1095h296c203 6 348-189 348-398v-299zm130 299C987-254 769 0 500 0H74v-1355h426c267-9 478 255 478 528v299" id="H"/><path fill="#333" d="M406 0C279 4 176-105 176-232v-595H26v-130c75 0 120-17 137-51 9-17 13-69 13-155h130v206h241v130H306v595c0 70 49 105 146 105 18 0 78-3 95-3V0H406" id="I"/><g id="k"><use transform="matrix(0.02061631944444444,0,0,0.02061631944444444,0,0)" xlink:href="#H"/><use transform="matrix(0.02061631944444444,0,0,0.02061631944444444,22.61610243055555,0)" xlink:href="#m"/><use transform="matrix(0.02061631944444444,0,0,0.02061631944444444,43.60351562499999,0)" xlink:href="#I"/><use transform="matrix(0.02061631944444444,0,0,0.02061631944444444,56.22070312499999,0)" xlink:href="#m"/></g></defs></g></svg>