<svg xmlns="http://www.w3.org/2000/svg" xmlns:lucid="lucid" width="360" height="360"><g lucid:page-tab-id="3MuydmhaGg5L"><path d="M-60-60h1870.87v1322.83H-60z" fill="#fff"/><path d="M160 100c0 33.14-26.86 60-60 60s-60-26.86-60-60 26.86-60 60-60 60 26.86 60 60z" stroke="#0c7cba" stroke-width="8" fill="#fff"/><path d="M47.1 47.1h105.8v105.8H47.1z" stroke="#000" stroke-opacity="0" stroke-width="8" fill="#fff"/><path d="M144.46 100c0 24.55-19.9 44.46-44.46 44.46-24.55 0-44.46-19.9-44.46-44.46 0-24.55 19.9-44.46 44.46-44.46 24.55 0 44.46 19.9 44.46 44.46z" stroke="#0c7cba" stroke-width="8" fill="#fff"/><path d="M300 100c0 27.6-22.4 50-50 50s-50-22.4-50-50 22.4-50 50-50 50 22.4 50 50z" stroke="#ef8d22" stroke-width="8" fill="#fff"/><path d="M205.9 55.9h88.2v88.2h-88.2z" stroke="#000" stroke-opacity="0" stroke-width="8" fill="#fff"/><path d="M287.05 100c0 20.46-16.6 37.05-37.05 37.05-20.46 0-37.05-16.6-37.05-37.05 0-20.46 16.6-37.05 37.05-37.05 20.46 0 37.05 16.6 37.05 37.05z" stroke="#ef8d22" stroke-width="8" fill="#fff"/><path d="M168 100h24" stroke="#0c7cba" stroke-width="8" fill="none"/><path d="M168.1 104h-4.26l.16-4-.14-4h4.25M196 99.97l.14 3.93v.1h-4.25v-8h4.3" fill="#0c7cba"/><path d="M150 250c0 27.6-22.4 50-50 50s-50-22.4-50-50 22.4-50 50-50 50 22.4 50 50z" stroke="#7ab648" stroke-width="8" fill="#fff"/><path d="M55.9 205.9h88.2v88.2H55.9z" stroke="#000" stroke-opacity="0" stroke-width="8" fill="#fff"/><path d="M137.05 250c0 20.46-16.6 37.05-37.05 37.05-20.46 0-37.05-16.6-37.05-37.05 0-20.46 16.6-37.05 37.05-37.05 20.46 0 37.05 16.6 37.05 37.05z" stroke="#7ab648" stroke-width="8" fill="#fff"/><path d="M100 168v24" stroke="#0c7cba" stroke-width="8" fill="none"/><path d="M100 164l4-.14v4.25h-8v-4.26M104 196.2l-3.97-.2-3.93.14H96v-4.25h8" fill="#0c7cba"/><path d="M290 250c0 22.1-17.9 40-40 40s-40-17.9-40-40 17.9-40 40-40 40 17.9 40 40z" stroke="#5e5e5e" stroke-width="8" fill="#fff"/><path d="M214.72 214.72h70.56v70.56h-70.56z" stroke="#000" stroke-opacity="0" stroke-width="8" fill="#fff"/><path d="M279.64 250c0 16.37-13.27 29.64-29.64 29.64s-29.64-13.27-29.64-29.64 13.27-29.64 29.64-29.64 29.64 13.27 29.64 29.64z" stroke="#5e5e5e" stroke-width="8" fill="#fff"/><path d="M158 250h44" stroke="#7ab648" stroke-width="8" fill="none"/><path d="M158.1 254h-4.3l.2-3.97-.14-3.93v-.1h4.25M206 249.95l.1 3.26.12.8h-4.33v-8h4.34" fill="#7ab648"/><path d="M250 158v44" stroke="#ef8d22" stroke-width="8" fill="none"/><path d="M249.97 154l3.93-.14h.1v4.25h-8v-4.3M254 206.24l-3.95-.24-3.26.1-.8.12v-4.33h8" fill="#ef8d22"/><path d="M308 100h8" stroke="#ef8d22" stroke-width="8" fill="none"/><path d="M308.1 104h-4.3l.2-3.97-.14-3.93V96h4.25" fill="#ef8d22"/><path d="M315.9 100h4.1" stroke="#ef8d22" stroke-width="8" fill="none"/><path d="M316 250h-18M315.9 250h4.1" stroke="#5e5e5e" stroke-width="8" fill="none"/><path d="M298.1 254h-4.34l.24-3.95-.1-3.26-.12-.8h4.33" fill="#5e5e5e"/><path d="M100 308v8" stroke="#7ab648" stroke-width="8" fill="none"/><path d="M99.97 304l3.93-.14h.1v4.25h-8v-4.3" fill="#7ab648"/><path d="M100 315.9v4.1" stroke="#7ab648" stroke-width="8" fill="none"/><path d="M250 298v18" stroke="#5e5e5e" stroke-width="8" fill="none"/><path d="M249.95 294l3.26-.1.8-.12v4.33h-8v-4.34" fill="#5e5e5e"/><path d="M250 315.9v4.1" stroke="#5e5e5e" stroke-width="8" fill="none"/></g></svg>